M48
;GenerationSoftware,Autodesk,EAGLE,9.6.2*%
;CreationDate,2025-02-14T13:22:57Z*%
FMAT,2
ICI,OFF
METRIC,TZ,000.000
T7C0.930
T6C1.450
T5C1.499
T4C1.600
T3C1.700
T2C4.100
T1C7.000
%
G90
M71
T1
X48900Y33500
X30000Y33700
X10900Y33500
T2
X0Y0
X0Y40000
X60000Y40000
X60000Y0
T3
X51500Y700
X47540Y700
X43580Y700
X39620Y700
X35660Y700
X31700Y700
T4
X45800Y19000
X45800Y22404
X35894Y22404
X35894Y19000
T5
X39180Y11200
X54420Y11200
X6700Y23420
X6700Y8180
T6
X13520Y-1320
X16520Y6680
X16580Y22480
X24580Y19480
T7
X17120Y-320
X23720Y7180
X17580Y18880
X25080Y12280
M30